<?xml version="1.0" standalone="yes"?><svg xmlns="http://www.w3.org/2000/svg" width="261" height="171" viewBox="0 0 261 171" fill="none" style="zoom: 1;"><g clip-path="url(#clip0_27_946)"><path d="M132.326111,62.756798 C134.480804,58.0205 139.300003,47.834198 141.339996,44.980103 " stroke-opacity="0.3" stroke="black" stroke-width="6" stroke-linecap="round"></path><path d="M206.278015,80.367996 C220.737,106.356003 224.671997,145.016006 223.764008,173.317001 C218.251007,190.432999 181.160004,187.087006 163.244995,184.360992 C164.153,170.470001 170.64502,131.320999 163.244995,109.511002 C125.599396,104.602997 115.78299,87.116997 115.78299,75.153297 C115.78299,63.189499 124.985901,46.317497 149.834,44.476898 C174.682007,42.636299 191.819,54.380501 206.278015,80.367996 " stroke-width="6.86902" stroke="#333E5B" fill="white"></path><circle r="3.50528" cx="156.007996px" fill="#333E5B" cy="59.639198px"></circle><circle r="3.50528" cx="136.988998px" fill="#333E5B" cy="54.1175px"></circle><path d="M152.195999,108.589996 C159.86499,110.738007 171.104004,110.123993 176.319,108.589996 " stroke-width="6.86902" stroke="#333E5B" stroke-linecap="round"></path></g><defs><clipPath id="clip0_27_946"><rect width="261" height="171" fill="white"></rect></clipPath></defs><g id="g1" transform="rotate(17 0 0) translate(28 -44)"><rect stroke="#262e48" id="rect2" stroke-width="6.86px" x="68.581367px" rx="6" y="86.581406px" width="80px" fill="white" transform="" ry="6" height="120px"></rect><rect stroke="#262e48" id="rect3" stroke-width="6.86px" x="6.99894px" rx="6" y="123.899689px" width="80px" fill="white" transform="rotate(-15 0 0)" ry="6" height="120px"></rect><rect stroke="#262e48" id="rect1" stroke-width="6.86px" x="-62.222149px" rx="6" y="148.294006px" width="80px" fill="white" transform="rotate(-30 0 0)" ry="6" height="120px"></rect></g></svg>